<?xml version="1.0" encoding="UTF-8"?>
<svg width="16px" height="18px" viewBox="0 0 16 18" version="1.1" xmlns="http://www.w3.org/2000/svg" xmlns:xlink="http://www.w3.org/1999/xlink">
    <defs></defs>
    <g id="All-Projects" stroke="none" stroke-width="1" fill="none" fill-rule="evenodd" stroke-linecap="round" stroke-linejoin="round">
        <g id="Projects---Dropdown" transform="translate(-54.000000, -33.000000)" stroke="#FFFFFF">
            <g id="projects-white" transform="translate(55.000000, 34.000000)">
                <g id="folder">
                    <path d="M10.4270938,8.34167501 C10.4270938,8.9175475 9.96025687,9.38438438 9.38438438,9.38438438 L1.04270938,9.38438438 C0.466836889,9.38438438 0,8.9175475 0,8.34167501 L0,1.04270938 C-1.15763996e-16,0.466836889 0.466836889,0 1.04270938,0 L3.64948282,0 L4.69219219,1.56406406 L9.38438438,1.56406406 C9.96025687,1.56406406 10.4270938,2.03090095 10.4270938,2.60677344 L10.4270938,8.34167501 Z" id="Shape"></path>
                </g>
                <g id="folder-copy" transform="translate(3.882883, 6.436937)" fill="#142F3D">
                    <path d="M10.4270938,8.34167501 C10.4270938,8.9175475 9.96025687,9.38438438 9.38438438,9.38438438 L1.04270938,9.38438438 C0.466836889,9.38438438 -1.77635684e-15,8.9175475 -1.77635684e-15,8.34167501 L-1.77635684e-15,1.04270938 C-1.89212084e-15,0.466836889 0.466836889,7.10542736e-15 1.04270938,7.10542736e-15 L3.64948282,7.10542736e-15 L4.69219219,1.56406406 L9.38438438,1.56406406 C9.96025687,1.56406406 10.4270938,2.03090095 10.4270938,2.60677344 L10.4270938,8.34167501 Z" id="Shape"></path>
                </g>
            </g>
        </g>
    </g>
</svg>