<?xml version="1.0" encoding="utf-8"?>
<!-- Generator: Adobe Illustrator 19.1.0, SVG Export Plug-In . SVG Version: 6.00 Build 0)  -->
<!DOCTYPE svg PUBLIC "-//W3C//DTD SVG 1.1//EN" "http://www.w3.org/Graphics/SVG/1.1/DTD/svg11.dtd">
<svg version="1.1" id="Layer_1" xmlns="http://www.w3.org/2000/svg" xmlns:xlink="http://www.w3.org/1999/xlink" x="0px" y="0px"
	 width="301.5px" height="93.3px" viewBox="0 0 301.5 93.3" style="enable-background:new 0 0 301.5 93.3;" xml:space="preserve">
<style type="text/css">
	.st0{fill:#7A7A7A;}
	.st1{fill:#8E8E8E;}
	.st2{fill:#303030;}
	.st3{fill:#5E5E5E;}
	.st4{fill:none;stroke:#303030;stroke-width:144;stroke-miterlimit:10;}
	.st5{fill:#3A3A3A;}
	.st6{fill:#6B6B6B;}
	.st7{fill:#727272;}
	.st8{fill:#FFFFFF;}
	.st9{fill:none;stroke:#000000;stroke-miterlimit:10;}
	.st10{fill:#94B7CB;}
	.st11{fill:none;stroke:#94B7CB;stroke-width:2;stroke-miterlimit:10;}
	.st12{fill:#9CBBCD;}
	.st13{fill:#8EB6CD;}
	.st14{fill:#AAD1E5;}
	.st15{fill:none;stroke:#FFFFFF;stroke-width:3;stroke-miterlimit:10;}
	.st16{fill:#020005;}
</style>
<g>
	<path class="st12" d="M1.9,4.6v88.7H0V4.6H1.9z M4.8,47.9L49,4.6h2.5L6.6,48.8L57,93.3h-2.9L4.8,49.9V47.9z"/>
	<path class="st12" d="M163.4,93.3h-1.9V5.5v-1h1h29.7c35.5,0,35.5,51.9,0,51.9h-14.3l40.9,36.9h-2.9L175,56.4v-1.9h17.3
		c33,0,33-48,0-48h-28.8V93.3z"/>
	<path class="st12" d="M287.2,63.5h-44.9l-12.1,29.8H228l35.7-90.1h2.2l35.7,90.1h-2.2L287.2,63.5z M243.1,61.6h43.3L264.7,5.9
		L243.1,61.6z"/>
	<g>
		<g>
			<path class="st12" d="M139.1,42.8l-1.8-1L83.8,10.9l-1.7-1c-0.3,0.6-0.7,1.2-1.2,1.6l1.8,1l53.6,31l1.8,1
				C138.3,43.9,138.6,43.3,139.1,42.8z M83.9,81.3l53-30.6l1.7-1c-0.4-0.5-0.7-1.1-0.9-1.8l-1.8,1L82.8,79.6l-1.8,1
				c0.5,0.5,0.8,1,1.1,1.7L83.9,81.3z M77.7,13c-1,0-2-0.1-2-0.4v66.8c0-0.3,1-0.4,2-0.4V13z"/>
		</g>
		<g>
			<path class="st12" d="M144.6,41.2c-0.1-0.7-0.2-1.4-0.3-2.1c-1.5-9.6-6.1-18.3-12.9-24.9c-8.2-8.1-19.7-13.3-32.2-13.3
				c-5.5,0-10.8,1-15.6,2.8c-0.6,0.2-1.3,0.5-1.9,0.7c0.4,0.6,0.7,1.2,0.8,1.9c0.6-0.3,1.2-0.5,1.9-0.7C89,3.8,94,2.9,99.2,2.9
				c12.1,0,22.8,4.9,30.7,12.7c6.4,6.3,10.8,14.4,12.3,23.5c0.1,0.6,0.2,1.3,0.3,2c0.2,0,0.4,0,0.6,0
				C143.7,41,144.2,41.1,144.6,41.2z M131.4,78.3c6.6-6.5,11.2-14.9,12.8-24.4c0.1-0.7,0.2-1.4,0.3-2.1c-0.4,0.1-0.9,0.2-1.4,0.2
				c-0.2,0-0.5,0-0.7,0c-0.1,0.7-0.2,1.3-0.3,2c-1.6,8.9-6,16.8-12.2,23c-7.9,7.7-18.7,12.6-30.7,12.6c-5.3,0-10.3-0.9-14.9-2.6
				c-0.6-0.2-1.2-0.5-1.9-0.7c-0.2,0.7-0.6,1.3-1,1.8c0.6,0.3,1.3,0.5,1.9,0.8c4.9,1.9,10.3,2.9,15.9,2.9
				C111.8,91.6,123.2,86.4,131.4,78.3z M73.1,80.8c-0.5-0.4-1.1-0.8-1.6-1.2c-1-0.8-2-1.8-3-2.7c-8-7.9-12.9-18.8-12.9-30.7
				s5-22.7,12.9-30.6c1-1,2.1-2,3.2-2.9c0.5-0.4,1.1-0.8,1.6-1.2c-0.5-0.5-0.9-1-1.2-1.7c-0.6,0.4-1.1,0.8-1.6,1.2
				c-1.2,1-2.4,2.1-3.6,3.2c-8.4,8.1-13.5,19.5-13.5,32c0,12.6,5.1,23.9,13.5,32.1c1.1,1.1,2.2,2.1,3.4,3c0.5,0.4,1.1,0.9,1.6,1.3
				C72.3,81.9,72.6,81.3,73.1,80.8z"/>
			<path class="st12" d="M139.1,42.8c0.9-1,2.1-1.7,3.5-1.8c-0.1-0.7-0.2-1.3-0.3-2c-2,0.2-3.8,1.3-5,2.8c-0.4,0.5-0.8,1.1-1,1.7
				l1.8,1C138.3,43.9,138.6,43.3,139.1,42.8z M137.8,47.9c-0.1-0.4-0.2-0.9-0.2-1.4c0-0.7,0.1-1.3,0.4-2c0.2-0.6,0.6-1.2,1-1.7
				c0.9-1,2.1-1.7,3.5-1.8c-0.1-0.7-0.2-1.3-0.3-2c-2,0.2-3.8,1.3-5,2.8c-0.4,0.5-0.8,1.1-1,1.7c-0.4,0.9-0.6,1.9-0.6,3
				c0,0.8,0.1,1.7,0.4,2.4L137.8,47.9z M144.2,53.9c3.6-0.5,6.4-3.6,6.4-7.4c0-3.7-2.7-6.8-6.3-7.4c-0.4-0.1-0.8-0.1-1.2-0.1
				c-0.3,0-0.6,0-0.9,0.1c-2,0.2-3.8,1.3-5,2.8c-0.4,0.5-0.8,1.1-1,1.7c-0.4,0.9-0.6,1.9-0.6,3c0,0.8,0.1,1.7,0.4,2.4
				c0.2,0.6,0.5,1.2,0.9,1.8c1.2,1.7,3,2.9,5.2,3.2c0.3,0,0.7,0.1,1,0.1C143.5,54,143.9,54,144.2,53.9z M138.7,49.7
				c-0.4-0.5-0.7-1.1-0.9-1.8c-0.1-0.4-0.2-0.9-0.2-1.4c0-0.7,0.1-1.3,0.4-2c0.2-0.6,0.6-1.2,1-1.7c0.9-1,2.1-1.7,3.5-1.8
				c0.2,0,0.4,0,0.6,0c0.5,0,1,0.1,1.5,0.2c2.3,0.6,4,2.8,4,5.3c0,2.5-1.8,4.7-4.1,5.3c-0.4,0.1-0.9,0.2-1.4,0.2c-0.2,0-0.5,0-0.7,0
				C140.9,51.8,139.6,50.9,138.7,49.7z M137.8,47.9c-0.1-0.4-0.2-0.9-0.2-1.4c0-0.7,0.1-1.3,0.4-2c0.2-0.6,0.6-1.2,1-1.7
				c0.9-1,2.1-1.7,3.5-1.8c-0.1-0.7-0.2-1.3-0.3-2c-2,0.2-3.8,1.3-5,2.8c-0.4,0.5-0.8,1.1-1,1.7c-0.4,0.9-0.6,1.9-0.6,3
				c0,0.8,0.1,1.7,0.4,2.4L137.8,47.9z"/>
			<path class="st12" d="M84.7,84.5c0-1.1-0.2-2.2-0.7-3.2c-0.3-0.6-0.7-1.2-1.1-1.7l-1.8,1c0.5,0.5,0.8,1,1.1,1.7
				c0.3,0.7,0.5,1.4,0.5,2.2c0,0.6-0.1,1.1-0.2,1.6c0.6,0.2,1.2,0.5,1.9,0.7C84.5,86.1,84.7,85.3,84.7,84.5z M84.7,84.5
				c0-1.1-0.2-2.2-0.7-3.2c-0.3-0.6-0.7-1.2-1.1-1.7l-1.8,1c0.5,0.5,0.8,1,1.1,1.7c0.3,0.7,0.5,1.4,0.5,2.2c0,0.6-0.1,1.1-0.2,1.6
				c0.6,0.2,1.2,0.5,1.9,0.7C84.5,86.1,84.7,85.3,84.7,84.5z M83.3,88.7c0.4-0.6,0.7-1.2,0.9-1.9c0.2-0.7,0.4-1.5,0.4-2.3
				c0-1.1-0.2-2.2-0.7-3.2c-0.3-0.6-0.7-1.2-1.1-1.7C81.5,78,79.4,77,77.2,77c-0.7,0-1.4,0.1-2,0.3c-1.4,0.4-2.7,1.2-3.7,2.3
				c-0.4,0.5-0.8,1.1-1.1,1.7c-0.5,1-0.7,2-0.7,3.2c0,4.1,3.4,7.5,7.5,7.5C79.7,92,82,90.7,83.3,88.7z M71.7,84.5
				c0-0.7,0.1-1.3,0.4-1.9c0.2-0.7,0.6-1.2,1.1-1.8c0.6-0.6,1.3-1.1,2.1-1.4c0.6-0.3,1.3-0.4,2-0.4c1.5,0,2.9,0.6,3.9,1.7
				c0.5,0.5,0.8,1,1.1,1.7c0.3,0.7,0.5,1.4,0.5,2.2c0,0.6-0.1,1.1-0.2,1.6c-0.2,0.7-0.6,1.3-1,1.8c-1,1.2-2.5,2-4.3,2
				C74.1,90,71.7,87.5,71.7,84.5z M84.7,84.5c0-1.1-0.2-2.2-0.7-3.2c-0.3-0.6-0.7-1.2-1.1-1.7l-1.8,1c0.5,0.5,0.8,1,1.1,1.7
				c0.3,0.7,0.5,1.4,0.5,2.2c0,0.6-0.1,1.1-0.2,1.6c0.6,0.2,1.2,0.5,1.9,0.7C84.5,86.1,84.7,85.3,84.7,84.5z"/>
			<path class="st12" d="M82.9,12.6l-1.7-1c-1,0.9-2.6,1.4-3.6,1.4v2C79.7,15,81.6,14.1,82.9,12.6z M82.7,12.6
				c0.5-0.5,0.8-1,1.2-1.6c0.5-1,0.8-2.2,0.8-3.4c0-0.7-0.1-1.3-0.3-2c-0.2-0.7-0.4-1.3-0.8-1.9C82.3,1.5,79.9,0,77.2,0
				c-4.1,0-7.5,3.4-7.5,7.5c0,1.3,0.3,2.5,0.9,3.5c0.3,0.6,0.7,1.2,1.2,1.6c0.9,1,2.1,1.7,3.4,2c0.6,0.2,1.3,0.3,2,0.3
				C79.3,15,81.3,14.1,82.7,12.6z M73.4,11.5c-0.5-0.5-0.9-1-1.2-1.7c-0.3-0.7-0.5-1.5-0.5-2.3c0-3,2.5-5.5,5.5-5.5
				c1.9,0,3.5,1,4.5,2.4c0.4,0.6,0.7,1.2,0.8,1.9c0.1,0.4,0.1,0.8,0.1,1.2c0,0.9-0.2,1.7-0.6,2.4c-0.3,0.6-0.7,1.2-1.2,1.6
				c-1,0.9-2.3,1.4-3.7,1.4c-0.7,0-1.4-0.1-2-0.4C74.5,12.4,73.9,12,73.4,11.5z"/>
		</g>
	</g>
</g>
</svg>
