<?xml version="1.0" encoding="utf-8"?>
<!-- Generator: Adobe Illustrator 19.1.0, SVG Export Plug-In . SVG Version: 6.00 Build 0)  -->
<!DOCTYPE svg PUBLIC "-//W3C//DTD SVG 1.1//EN" "http://www.w3.org/Graphics/SVG/1.1/DTD/svg11.dtd">
<svg version="1.1" id="Layer_1" xmlns="http://www.w3.org/2000/svg" xmlns:xlink="http://www.w3.org/1999/xlink" x="0px" y="0px"
	 width="97.1px" height="92px" viewBox="0 0 97.1 92" style="enable-background:new 0 0 97.1 92;" xml:space="preserve">
<style type="text/css">
	.st0{fill:#7A7A7A;}
	.st1{fill:#8E8E8E;}
	.st2{fill:#303030;}
	.st3{fill:#5E5E5E;}
	.st4{fill:none;stroke:#303030;stroke-width:144;stroke-miterlimit:10;}
	.st5{fill:#3A3A3A;}
	.st6{fill:#6B6B6B;}
	.st7{fill:#727272;}
	.st8{fill:#FFFFFF;}
	.st9{fill:none;stroke:#000000;stroke-miterlimit:10;}
	.st10{fill:#94B7CB;}
	.st11{fill:none;stroke:#94B7CB;stroke-width:2;stroke-miterlimit:10;}
	.st12{fill:#9CBBCD;}
	.st13{fill:#8EB6CD;}
	.st14{fill:#AAD1E5;}
	.st15{fill:none;stroke:#FFFFFF;stroke-width:3;stroke-miterlimit:10;}
	.st16{fill:#020005;}
</style>
<g>
	<g>
		<path class="st8" d="M85.5,42.8l-1.8-1L30.3,10.9l-1.7-1c-0.3,0.6-0.7,1.2-1.2,1.6l1.8,1l53.6,31l1.8,1
			C84.7,43.9,85.1,43.3,85.5,42.8z M30.4,81.3l53-30.6l1.7-1c-0.4-0.5-0.7-1.1-0.9-1.8l-1.8,1L29.3,79.6l-1.8,1
			c0.5,0.5,0.9,1,1.1,1.7L30.4,81.3z M24.1,13c-1,0-2-0.1-2-0.4v66.8c0-0.3,1-0.4,2-0.4V13z"/>
	</g>
	<g>
		<path class="st8" d="M91.1,41.2c-0.1-0.7-0.2-1.4-0.3-2.1c-1.5-9.6-6.1-18.3-12.9-24.9C69.7,6.1,58.2,0.9,45.7,0.9
			c-5.5,0-10.8,1-15.6,2.8c-0.6,0.2-1.3,0.5-1.9,0.7C28.5,5,28.8,5.6,29,6.3c0.6-0.3,1.2-0.5,1.9-0.7c4.6-1.7,9.6-2.6,14.8-2.6
			c12.1,0,22.8,4.9,30.7,12.7c6.4,6.3,10.8,14.4,12.3,23.5c0.1,0.6,0.2,1.3,0.3,2c0.2,0,0.4,0,0.6,0C90.1,41,90.6,41.1,91.1,41.2z
			 M77.9,78.3c6.6-6.5,11.2-14.9,12.8-24.4c0.1-0.7,0.2-1.4,0.3-2.1c-0.4,0.1-0.9,0.2-1.4,0.2c-0.2,0-0.5,0-0.7,0
			c-0.1,0.7-0.2,1.3-0.3,2c-1.6,8.9-6,16.8-12.2,23c-7.9,7.7-18.6,12.6-30.7,12.6c-5.3,0-10.3-0.9-14.9-2.6
			c-0.6-0.2-1.2-0.5-1.9-0.7c-0.2,0.7-0.5,1.3-1,1.8c0.6,0.3,1.3,0.5,1.9,0.8c4.9,1.9,10.3,2.9,15.9,2.9
			C58.2,91.6,69.7,86.4,77.9,78.3z M19.5,80.8C19,80.4,18.5,80,18,79.6c-1-0.8-2-1.8-3-2.7C7,69,2,58.1,2,46.2S7,23.5,15,15.6
			c1-1,2.1-2,3.2-2.9c0.5-0.4,1.1-0.8,1.6-1.2c-0.5-0.5-0.9-1-1.2-1.7c-0.5,0.4-1.1,0.8-1.6,1.2c-1.2,1-2.4,2.1-3.6,3.2
			C5.1,22.3,0,33.7,0,46.2C0,58.7,5.1,70,13.4,78.3c1.1,1.1,2.2,2.1,3.4,3c0.5,0.4,1.1,0.9,1.6,1.3C18.7,81.9,19.1,81.3,19.5,80.8z"
			/>
		<path class="st8" d="M85.5,42.8c0.9-1,2.1-1.7,3.5-1.8c-0.1-0.7-0.2-1.3-0.3-2c-2,0.2-3.8,1.3-5,2.8c-0.4,0.5-0.8,1.1-1,1.7l1.8,1
			C84.7,43.9,85.1,43.3,85.5,42.8z M84.3,47.9c-0.1-0.4-0.2-0.9-0.2-1.4c0-0.7,0.1-1.3,0.4-2c0.2-0.6,0.6-1.2,1-1.7
			c0.9-1,2.1-1.7,3.5-1.8c-0.1-0.7-0.2-1.3-0.3-2c-2,0.2-3.8,1.3-5,2.8c-0.4,0.5-0.8,1.1-1,1.7c-0.4,0.9-0.6,1.9-0.6,3
			c0,0.8,0.1,1.7,0.4,2.4L84.3,47.9z M90.7,53.9c3.6-0.5,6.4-3.6,6.4-7.4c0-3.7-2.7-6.8-6.3-7.4C90.4,39,90,39,89.6,39
			c-0.3,0-0.6,0-0.9,0.1c-2,0.2-3.8,1.3-5,2.8c-0.4,0.5-0.8,1.1-1,1.7c-0.4,0.9-0.6,1.9-0.6,3c0,0.8,0.1,1.7,0.4,2.4
			c0.2,0.6,0.5,1.2,0.9,1.8c1.2,1.7,3,2.9,5.2,3.2c0.3,0,0.7,0.1,1,0.1C90,54,90.3,54,90.7,53.9z M85.2,49.7
			c-0.4-0.5-0.7-1.1-0.9-1.8c-0.1-0.4-0.2-0.9-0.2-1.4c0-0.7,0.1-1.3,0.4-2c0.2-0.6,0.6-1.2,1-1.7c0.9-1,2.1-1.7,3.5-1.8
			c0.2,0,0.4,0,0.6,0c0.5,0,1,0.1,1.5,0.2c2.3,0.6,4,2.8,4,5.3c0,2.5-1.8,4.7-4.1,5.3c-0.4,0.1-0.9,0.2-1.4,0.2c-0.2,0-0.5,0-0.7,0
			C87.4,51.8,86,50.9,85.2,49.7z M84.3,47.9c-0.1-0.4-0.2-0.9-0.2-1.4c0-0.7,0.1-1.3,0.4-2c0.2-0.6,0.6-1.2,1-1.7
			c0.9-1,2.1-1.7,3.5-1.8c-0.1-0.7-0.2-1.3-0.3-2c-2,0.2-3.8,1.3-5,2.8c-0.4,0.5-0.8,1.1-1,1.7c-0.4,0.9-0.6,1.9-0.6,3
			c0,0.8,0.1,1.7,0.4,2.4L84.3,47.9z"/>
		<path class="st8" d="M31.1,84.5c0-1.1-0.2-2.2-0.7-3.2c-0.3-0.6-0.6-1.2-1.1-1.7l-1.8,1c0.5,0.5,0.9,1,1.1,1.7
			c0.3,0.7,0.5,1.4,0.5,2.2c0,0.6-0.1,1.1-0.2,1.6c0.6,0.2,1.2,0.5,1.9,0.7C31,86.1,31.1,85.3,31.1,84.5z M31.1,84.5
			c0-1.1-0.2-2.2-0.7-3.2c-0.3-0.6-0.6-1.2-1.1-1.7l-1.8,1c0.5,0.5,0.9,1,1.1,1.7c0.3,0.7,0.5,1.4,0.5,2.2c0,0.6-0.1,1.1-0.2,1.6
			c0.6,0.2,1.2,0.5,1.9,0.7C31,86.1,31.1,85.3,31.1,84.5z M29.8,88.7c0.4-0.6,0.7-1.2,0.9-1.9c0.2-0.7,0.4-1.5,0.4-2.3
			c0-1.1-0.2-2.2-0.7-3.2c-0.3-0.6-0.6-1.2-1.1-1.7C27.9,78,25.9,77,23.6,77c-0.7,0-1.4,0.1-2,0.3c-1.4,0.4-2.7,1.2-3.7,2.3
			c-0.4,0.5-0.8,1.1-1.1,1.7c-0.5,1-0.7,2-0.7,3.2c0,4.1,3.4,7.5,7.5,7.5C26.2,92,28.5,90.7,29.8,88.7z M18.1,84.5
			c0-0.7,0.1-1.3,0.4-1.9c0.2-0.7,0.6-1.2,1.1-1.8c0.6-0.6,1.3-1.1,2.1-1.4c0.6-0.3,1.3-0.4,2-0.4c1.5,0,2.9,0.6,3.9,1.7
			c0.5,0.5,0.9,1,1.1,1.7c0.3,0.7,0.5,1.4,0.5,2.2c0,0.6-0.1,1.1-0.2,1.6c-0.2,0.7-0.5,1.3-1,1.8c-1,1.2-2.5,2-4.3,2
			C20.6,90,18.1,87.5,18.1,84.5z M31.1,84.5c0-1.1-0.2-2.2-0.7-3.2c-0.3-0.6-0.6-1.2-1.1-1.7l-1.8,1c0.5,0.5,0.9,1,1.1,1.7
			c0.3,0.7,0.5,1.4,0.5,2.2c0,0.6-0.1,1.1-0.2,1.6c0.6,0.2,1.2,0.5,1.9,0.7C31,86.1,31.1,85.3,31.1,84.5z"/>
		<path class="st8" d="M29.4,12.6l-1.7-1c-1,0.9-2.6,1.4-3.6,1.4v2C26.1,15,28,14.1,29.4,12.6z M29.1,12.6c0.5-0.5,0.8-1,1.2-1.6
			c0.5-1,0.8-2.2,0.8-3.4c0-0.7-0.1-1.3-0.3-2c-0.2-0.7-0.4-1.3-0.8-1.9C28.8,1.5,26.4,0,23.6,0c-4.1,0-7.5,3.4-7.5,7.5
			c0,1.3,0.3,2.5,0.9,3.5c0.3,0.6,0.7,1.2,1.2,1.6c0.9,1,2.1,1.7,3.4,2c0.6,0.2,1.3,0.3,2,0.3C25.8,15,27.8,14.1,29.1,12.6z
			 M19.8,11.5c-0.5-0.5-0.9-1-1.2-1.7c-0.3-0.7-0.5-1.5-0.5-2.3c0-3,2.5-5.5,5.5-5.5c1.9,0,3.5,1,4.5,2.4C28.5,5,28.8,5.6,29,6.3
			c0.1,0.4,0.1,0.8,0.1,1.2c0,0.9-0.2,1.7-0.6,2.4c-0.3,0.6-0.7,1.2-1.2,1.6c-1,0.9-2.3,1.4-3.7,1.4c-0.7,0-1.4-0.1-2-0.4
			C20.9,12.4,20.3,12,19.8,11.5z"/>
	</g>
</g>
</svg>
