<?xml version="1.0" encoding="UTF-8"?>
<svg width="189px" height="69px" viewBox="0 0 189 69" version="1.1" xmlns="http://www.w3.org/2000/svg" xmlns:xlink="http://www.w3.org/1999/xlink">
    <!-- Generator: sketchtool 54.1 (76490) - https://sketchapp.com -->
    <title>B6234ED8-7957-4B2A-885B-D35D841495F1</title>
    <desc>Created with sketchtool.</desc>
    <g id="Login-&amp;-Sign-Up" stroke="none" stroke-width="1" fill="none" fill-rule="evenodd">
        <g id="Login---Clouds" transform="translate(-418.000000, -111.000000)">
            <g id="logo" transform="translate(418.000000, 111.000000)">
                <g id="Group-2" fill="#00B0A9">
                    <path d="M31.1950673,49.1877845 C28.9975271,51.3687099 25.4221705,51.3687099 23.2254403,49.1877845 C21.0279001,47.0068592 21.0279001,43.4585347 23.2254403,41.2784132 C25.4221705,39.0974879 28.9975271,39.0974879 31.1950673,41.2784132 C33.3926075,43.4585347 33.3926075,47.0068592 31.1950673,49.1877845 Z M63.8236388,1.42108547e-14 L68.8043519,4.94305562 L41.9081771,31.6358775 C33.9409801,23.7289178 20.9792999,23.7289178 13.0112929,31.6358775 C5.05138595,39.5436411 5.05138595,52.4073223 13.0112929,60.3078509 L8.03057978,65.2501027 C-2.67685993,54.6236183 -2.67685993,37.327345 8.03057978,26.6936258 C13.5256453,21.2401066 20.7954291,18.5832845 28.0158026,18.7239635 L37.9213386,8.89331994 L42.9012417,13.8428066 L36.4771019,20.2199834 C38.1181695,20.7859146 39.7244069,21.5053869 41.252884,22.3936738 L63.8236388,1.42108547e-14 Z M48.9527798,41.4520512 C52.1863148,48.6459697 50.8336085,57.3849447 44.8954709,63.2789899 C37.2020552,70.9070034 24.6915471,70.9070034 16.9989414,63.2789899 L21.9788445,58.3359343 C26.9247275,63.2371882 34.9688749,63.2371882 39.9147578,58.3359343 C44.8525407,53.4282494 44.8598308,45.4441173 39.9147578,40.5356285 L39.9706481,40.4801608 L44.8954709,35.5933767 L54.8560872,25.7072655 L59.8359903,30.6503211 L48.9527798,41.4520512 Z" id="Combined-Shape"></path>
                </g>
                <g transform="translate(72.000000, 23.298701)" fill="#283C46" id="Fill-1" opacity="0.903578">
                    <path d="M93.0101186,26.357745 C93.0101186,31.7758935 96.7847361,35.0042739 101.490858,35.0042739 C112.64299,35.0042739 112.64299,17.7674877 101.490858,17.7674877 C96.7847361,17.7674877 93.0101186,20.9379888 93.0101186,26.357745 L93.0101186,26.357745 Z M110.203258,12.1757013 L117,12.1757013 L117,40.5960604 L110.319899,40.5960604 L109.971597,36.4448262 C108.3443,39.7889653 103.871459,41.4023516 100.678424,41.4610348 C92.1968748,41.5181103 85.9233957,36.3298714 85.9233957,26.357745 C85.9233957,16.5584528 92.4884762,11.4272894 100.851765,11.4843648 C104.685513,11.4843648 108.3443,13.272193 109.971597,16.0954181 L110.203258,12.1757013 Z M68.8444664,12.1757013 L69.3669188,15.461961 C71.5733691,11.9457917 74.5363628,11.4272894 77.4402263,11.4272894 C80.4032201,11.4272894 83.2495733,12.5792488 84.8177406,14.1371675 L81.6230858,20.2466524 C80.170749,19.0360097 78.8350528,18.4025526 76.511962,18.4025526 C72.7940448,18.4025526 69.3669188,20.3616071 69.3669188,25.6077254 L69.3669188,40.5960604 L62.2801959,40.5960604 L62.2801959,12.1757013 L68.8444664,12.1757013 Z M34.6857978,26.4148205 C34.6857978,30.7388888 37.30049,34.7735605 42.469934,34.7735605 C47.639378,34.7735605 50.2532601,30.7388888 50.2532601,26.4148205 C50.2532601,22.1494354 47.2327561,17.9982011 42.469934,17.9982011 C37.3588102,17.9982011 34.6857978,22.1494354 34.6857978,26.4148205 L34.6857978,26.4148205 Z M57.3966833,26.4148205 C57.3966833,34.5999225 51.7631071,41.2295175 42.469934,41.2295175 C33.1759508,41.2295175 27.5998849,34.5999225 27.5998849,26.4148205 C27.5998849,18.2867939 33.2934014,11.6001235 42.4116137,11.6001235 C51.531446,11.6001235 57.3966833,18.2867939 57.3966833,26.4148205 L57.3966833,26.4148205 Z M7.14971998,0.301595787 L7.14971998,23.5907915 L16.7920047,12.1757013 L25.2727441,12.1757013 L25.2727441,12.5792488 L13.5973499,25.549846 L26.8984217,40.0767542 L26.8984217,40.5960604 L18.360172,40.5960604 L7.14971998,27.7404179 L7.14971998,40.5960604 L0.063807082,40.5960604 L0.063807082,0.301595787 L7.14971998,0.301595787 Z"></path>
                </g>
            </g>
        </g>
    </g>
</svg>