<?xml version="1.0" encoding="UTF-8"?>
<svg width="25px" height="25px" viewBox="0 0 25 25" version="1.1" xmlns="http://www.w3.org/2000/svg" xmlns:xlink="http://www.w3.org/1999/xlink">
    <!-- Generator: sketchtool 54.1 (76490) - https://sketchapp.com -->
    <title>07AE79D1-3B22-45F4-9621-88F647C0B5B2</title>
    <desc>Created with sketchtool.</desc>
    <defs>
        <polygon id="path-1" points="1.47058824e-05 0.287212644 24.9832353 0.287212644 24.9832353 24.9518678 1.47058824e-05 24.9518678"></polygon>
    </defs>
    <g id="All-Projects" stroke="none" stroke-width="1" fill="none" fill-rule="evenodd">
        <g transform="translate(-17.000000, -11.000000)" id="logo">
            <g transform="translate(17.000000, 11.000000)">
                <mask id="mask-2" fill="white">
                    <use xlink:href="#path-1"></use>
                </mask>
                <g id="Clip-2"></g>
                <path d="M11.3271471,17.8698563 C12.1250882,17.090546 12.1250882,15.8221552 11.3271471,15.0425575 C10.5292059,14.2629598 9.23097059,14.2629598 8.43302941,15.0425575 C7.63538235,15.8221552 7.63538235,17.090546 8.43302941,17.8698563 C9.23097059,18.649454 10.5292059,18.649454 11.3271471,17.8698563 L11.3271471,17.8698563 Z M23.1747941,0.287097701 L14.9792059,8.29198276 C14.4242059,7.97445402 13.8409706,7.71727011 13.2450882,7.51497126 L15.5777353,5.23566092 L13.7695,3.46612069 L10.1727353,6.98020115 C7.55097059,6.93020115 4.91126471,7.87962644 2.91597059,9.82905172 C-0.971970588,13.6302011 -0.971970588,19.8132471 2.91597059,23.611523 L4.7245,21.8448563 C1.83420588,19.0207184 1.83420588,14.4224425 4.7245,11.5960057 C7.61773529,8.76928161 12.3242059,8.76928161 15.2171471,11.5960057 L24.9833235,2.05433908 L23.1747941,0.287097701 Z M17.7750882,15.1046264 C18.9492059,17.6761782 18.4580294,20.8000287 16.3015588,22.9069253 C13.5083235,25.6336494 8.96567647,25.6336494 6.17244118,22.9069253 L7.98067647,21.1399713 C9.77655882,22.8919828 12.6974412,22.8919828 14.4933235,21.1399713 C16.2862647,19.3856609 16.2889118,16.5316379 14.4933235,14.7773276 L14.5136176,14.7572126 L16.3015588,13.0103736 L19.9186176,9.47646552 L21.7268529,11.2434195 L17.7750882,15.1046264 Z" id="Fill-1" fill="#FFFFFF" mask="url(#mask-2)"></path>
            </g>
        </g>
    </g>
</svg>