<?xml version="1.0" encoding="UTF-8"?>
<svg width="87px" height="24px" viewBox="0 0 87 24" version="1.1" xmlns="http://www.w3.org/2000/svg" xmlns:xlink="http://www.w3.org/1999/xlink">
    <!-- Generator: sketchtool 49.1 (51147) - http://www.bohemiancoding.com/sketch -->
    <title>FAAA029C-A799-4C2C-92B6-F1103F302645</title>
    <desc>Created with sketchtool.</desc>
    <defs></defs>
    <g id="Login-&amp;-Sign-Up" stroke="none" stroke-width="1" fill="none" fill-rule="evenodd">
        <g id="Login" transform="translate(-541.000000, -985.000000)" fill="#FFFFFF" fill-rule="nonzero">
            <g id="Matrix-Logo-White" transform="translate(541.000000, 985.000000)">
                <polygon id="Shape" points="14.1666667 24 13.9453125 13.9505208 8.67708333 22.0078125 8.32291667 22.0078125 3.01041667 13.9947917 2.83333333 24 0 24 0.708333333 7.04427083 1.15104167 7 8.58854167 18.1119792 15.8489583 7 16.2916667 7.04427083 17 24"></polygon>
                <path d="M31.0420168,24 L29.3837535,20.1484375 L22.6610644,20.1484375 L21.0028011,24 L18,24 L25.7983193,7 L26.2016807,7 L34,24 L31.0420168,24 Z M26.022409,12.3125 L23.6022409,17.890625 L28.442577,17.890625 L26.022409,12.3125 Z" id="Shape"></path>
                <polygon id="Shape" points="39.8852459 9.64643799 39.8852459 24 37.1147541 24 37.1147541 9.64643799 32 9.64643799 32 7 45 7 45 9.64643799"></polygon>
                <path d="M55.8602151,23.9553806 L52.2903226,17.8871391 C52.1612903,17.8871391 51.9892473,17.9317585 51.8602151,17.9317585 C51.7311828,17.9317585 51.5591398,17.9317585 51.4301075,17.9317585 C51.172043,17.9317585 50.9139785,17.9317585 50.6129032,17.9317585 C50.3548387,17.9317585 50.0537634,17.9317585 49.7956989,17.8871391 L49.7956989,24 L47,24 L47,7.26771654 C47.6451613,7.17847769 48.3333333,7.13385827 49.0215054,7.08923885 C49.7096774,7.04461942 50.483871,7 51.3010753,7 C52.4623656,7 53.4516129,7.13385827 54.2688172,7.4015748 C55.0860215,7.66929134 55.8172043,8.07086614 56.3333333,8.51706037 C56.8924731,9.00787402 57.2795699,9.54330709 57.5376344,10.2125984 C57.7956989,10.8372703 57.9247312,11.5511811 57.9247312,12.3097113 C57.9247312,13.4251969 57.6666667,14.4068241 57.1075269,15.2545932 C56.5483871,16.1023622 55.7741935,16.7716535 54.7419355,17.2178478 L59,24 L55.8602151,24 L55.8602151,23.9553806 Z M55.0860215,12.4435696 C55.0860215,11.5958005 54.7849462,10.8818898 54.1827957,10.3464567 C53.5806452,9.81102362 52.7634409,9.54330709 51.688172,9.54330709 C51.344086,9.54330709 51.0430108,9.54330709 50.6989247,9.58792651 C50.3978495,9.58792651 50.0967742,9.63254593 49.7956989,9.72178478 L49.7956989,15.4776903 C50.0537634,15.5223097 50.311828,15.5223097 50.5698925,15.5669291 C50.827957,15.5669291 51.1290323,15.6115486 51.3870968,15.6115486 C52.5913978,15.6115486 53.4946237,15.343832 54.0967742,14.7637795 C54.7419355,14.183727 55.0860215,13.4251969 55.0860215,12.4435696 Z" id="Shape"></path>
                <polygon id="Shape" points="61 23 61 7 64 7 64 23 61 23"></polygon>
                <polygon id="Shape" points="67 7 70.4477612 7 82 23 78.5522388 23"></polygon>
                <g id="Group" opacity="0.7" transform="translate(67.000000, 0.000000)">
                    <polygon id="Shape" points="19.9148936 0 16.9361702 0 16.6808511 0.45 19.6170213 0.45"></polygon>
                    <polygon id="Shape" points="16.1276596 1.19181818 19.106383 1.19181818 19.3617021 0.741818182 16.4255319 0.741818182"></polygon>
                    <polygon id="Shape" points="15.6170213 1.93363636 18.5531915 1.93363636 18.8510638 1.48363636 15.8723404 1.48363636"></polygon>
                    <polygon id="Shape" points="15.106383 2.71909091 18.0425532 2.71909091 18.3404255 2.26909091 15.3617021 2.26909091"></polygon>
                    <polygon id="Shape" points="14.5531915 3.46090909 17.5319149 3.46090909 17.787234 3.01090909 14.8510638 3.01090909"></polygon>
                    <polygon id="Shape" points="14.0425532 4.20272727 16.9787234 4.20272727 17.2765957 3.75272727 14.2978723 3.75272727"></polygon>
                    <polygon id="Shape" points="13.5319149 4.94454545 16.4680851 4.94454545 16.7659574 4.49454545 13.787234 4.49454545"></polygon>
                    <polygon id="Shape" points="12.9787234 5.68636364 15.9574468 5.68636364 16.212766 5.23636364 13.2765957 5.23636364"></polygon>
                    <polygon id="Shape" points="12.4680851 6.47181818 15.4042553 6.47181818 15.7021277 6.02181818 12.7234043 6.02181818"></polygon>
                    <polygon id="Shape" points="11.9574468 7.21363636 14.893617 7.21363636 15.1914894 6.76363636 12.212766 6.76363636"></polygon>
                    <polygon id="Shape" points="11.4042553 7.95545455 14.3829787 7.95545455 14.6382979 7.50545455 11.7021277 7.50545455"></polygon>
                    <polygon id="Shape" points="10.893617 8.69727273 13.8297872 8.69727273 14.1276596 8.24727273 11.1489362 8.24727273"></polygon>
                    <polygon id="Shape" points="10.3829787 9.43909091 13.3191489 9.43909091 13.6170213 8.98909091 10.6382979 8.98909091"></polygon>
                    <polygon id="Shape" points="9.82978723 10.2245455 12.8085106 10.2245455 13.0638298 9.77454545 10.1276596 9.77454545"></polygon>
                    <polygon id="Shape" points="9.31914894 10.9663636 12.2553191 10.9663636 12.5531915 10.5163636 9.57446809 10.5163636"></polygon>
                    <polygon id="Shape" points="8.80851064 11.7081818 11.7446809 11.7081818 12.0425532 11.2581818 9.06382979 11.2581818"></polygon>
                    <polygon id="Shape" points="8.25531915 12.45 11.2340426 12.45 11.4893617 12 8.55319149 12"></polygon>
                    <polygon id="Shape" points="7.74468085 13.1918182 10.7234043 13.1918182 10.9787234 12.7418182 8 12.7418182"></polygon>
                    <polygon id="Shape" points="7.23404255 13.9772727 10.1702128 13.9772727 10.4680851 13.5272727 7.4893617 13.5272727"></polygon>
                    <polygon id="Shape" points="6.68085106 14.7190909 9.65957447 14.7190909 9.91489362 14.2690909 6.9787234 14.2690909"></polygon>
                    <polygon id="Shape" points="6.17021277 15.4609091 9.10638298 15.4609091 9.40425532 15.0109091 6.42553191 15.0109091"></polygon>
                    <polygon id="Shape" points="5.65957447 16.2027273 8.59574468 16.2027273 8.89361702 15.7527273 5.91489362 15.7527273"></polygon>
                    <polygon id="Shape" points="5.10638298 16.9445455 8.08510638 16.9445455 8.34042553 16.4945455 5.40425532 16.4945455"></polygon>
                    <polygon id="Shape" points="4.59574468 17.73 7.57446809 17.73 7.82978723 17.28 4.85106383 17.28"></polygon>
                    <polygon id="Shape" points="4.08510638 18.4718182 7.0212766 18.4718182 7.31914894 18.0218182 4.34042553 18.0218182"></polygon>
                    <polygon id="Shape" points="3.53191489 19.2136364 6.5106383 19.2136364 6.76595745 18.7636364 3.82978723 18.7636364"></polygon>
                    <polygon id="Shape" points="3.0212766 19.9554545 6 19.9554545 6.25531915 19.5054545 3.27659574 19.5054545"></polygon>
                    <polygon id="Shape" points="2.5106383 20.6972727 5.44680851 20.6972727 5.74468085 20.2472727 2.76595745 20.2472727"></polygon>
                    <polygon id="Shape" points="1.95744681 21.4827273 4.93617021 21.4827273 5.19148936 21.0327273 2.25531915 21.0327273"></polygon>
                    <polygon id="Shape" points="1.44680851 22.2245455 4.42553191 22.2245455 4.68085106 21.7745455 1.70212766 21.7745455"></polygon>
                    <polygon id="Shape" points="0.936170213 22.9663636 3.87234043 22.9663636 4.17021277 22.5163636 1.19148936 22.5163636"></polygon>
                    <polygon id="Shape" points="0.382978723 23.7081818 3.36170213 23.7081818 3.61702128 23.2581818 0.680851064 23.2581818"></polygon>
                </g>
            </g>
        </g>
    </g>
</svg>