<?xml version="1.0" encoding="UTF-8"?>
<svg width="150px" height="42px" viewBox="0 0 150 42" version="1.1" xmlns="http://www.w3.org/2000/svg" xmlns:xlink="http://www.w3.org/1999/xlink">
    <!-- Generator: Sketch 55.2 (78181) - https://sketchapp.com -->
    <title>Matrix-Logo-White</title>
    <desc>Created with Sketch.</desc>
    <g id="Login-&amp;-Sign-Up" stroke="none" stroke-width="1" fill="none" fill-rule="evenodd">
        <g id="Login---Clouds" transform="translate(-549.000000, -905.000000)" fill="#FFFFFF" fill-rule="nonzero">
            <g id="Matrix-Logo-White" transform="translate(549.000000, 905.000000)">
                <polygon id="Path" points="24 41.4 23.625 24.375 14.7 38.025 14.1 38.025 5.1 24.45 4.8 41.4 0 41.4 1.2 12.675 1.95 12.6 14.55 31.425 26.85 12.6 27.6 12.675 28.8 41.4"></polygon>
                <path d="M53.1,41.4 L50.325,34.875 L39.075,34.875 L36.3,41.4 L31.275,41.4 L44.325,12.6 L45,12.6 L58.05,41.4 L53.1,41.4 Z M44.7,21.6 L40.65,31.05 L48.75,31.05 L44.7,21.6 Z" id="Shape"></path>
                <polygon id="Path" points="68.25 17.475 68.25 41.475 63.375 41.475 63.375 17.475 54.375 17.475 54.375 13.05 77.25 13.05 77.25 17.475"></polygon>
                <path d="M95.925,41.4 L89.7,31.2 C89.475,31.2 89.175,31.275 88.95,31.275 C88.725,31.275 88.425,31.275 88.2,31.275 C87.75,31.275 87.3,31.275 86.775,31.275 C86.325,31.275 85.8,31.275 85.35,31.2 L85.35,41.475 L80.475,41.475 L80.475,13.35 C81.6,13.2 82.8,13.125 84,13.05 C85.2,12.975 86.55,12.9 87.975,12.9 C90,12.9 91.725,13.125 93.15,13.575 C94.575,14.025 95.85,14.7 96.75,15.45 C97.725,16.275 98.4,17.175 98.85,18.3 C99.3,19.35 99.525,20.55 99.525,21.825 C99.525,23.7 99.075,25.35 98.1,26.775 C97.125,28.2 95.775,29.325 93.975,30.075 L101.4,41.475 L95.925,41.475 L95.925,41.4 Z M94.575,22.05 C94.575,20.625 94.05,19.425 93,18.525 C91.95,17.625 90.525,17.175 88.65,17.175 C88.05,17.175 87.525,17.175 86.925,17.25 C86.4,17.25 85.875,17.325 85.35,17.475 L85.35,27.15 C85.8,27.225 86.25,27.225 86.7,27.3 C87.15,27.3 87.675,27.375 88.125,27.375 C90.225,27.375 91.8,26.925 92.85,25.95 C93.975,24.975 94.575,23.7 94.575,22.05 Z" id="Shape"></path>
                <polygon id="Path" points="105.975 41.4 105.975 13.05 110.775 13.05 110.775 41.4 105.975 41.4"></polygon>
                <polygon id="Path" points="114.9 13.05 120.675 13.05 140.025 41.4 134.25 41.4"></polygon>
                <g id="Group" opacity="0.7" transform="translate(114.750000, 0.000000)">
                    <polygon id="Path" points="35.1 0.75 29.85 0.75 29.4 1.425 34.575 1.425"></polygon>
                    <polygon id="Path" points="28.425 2.7 33.675 2.7 34.125 2.025 28.95 2.025"></polygon>
                    <polygon id="Path" points="27.525 3.975 32.7 3.975 33.225 3.3 27.975 3.3"></polygon>
                    <polygon id="Path" points="26.625 5.325 31.8 5.325 32.325 4.65 27.075 4.65"></polygon>
                    <polygon id="Path" points="25.65 6.6 30.9 6.6 31.35 5.925 26.175 5.925"></polygon>
                    <polygon id="Path" points="24.75 7.875 29.925 7.875 30.45 7.2 25.2 7.2"></polygon>
                    <polygon id="Path" points="23.85 9.15 29.025 9.15 29.55 8.475 24.3 8.475"></polygon>
                    <polygon id="Path" points="22.875 10.425 28.125 10.425 28.575 9.75 23.4 9.75"></polygon>
                    <polygon id="Path" points="21.975 11.775 27.15 11.775 27.675 11.1 22.425 11.1"></polygon>
                    <polygon id="Path" points="21.075 13.05 26.25 13.05 26.775 12.375 21.525 12.375"></polygon>
                    <polygon id="Path" points="20.1 14.325 25.35 14.325 25.8 13.65 20.625 13.65"></polygon>
                    <polygon id="Path" points="19.2 15.6 24.375 15.6 24.9 14.925 19.65 14.925"></polygon>
                    <polygon id="Path" points="18.3 16.875 23.475 16.875 24 16.2 18.75 16.2"></polygon>
                    <polygon id="Path" points="17.325 18.225 22.575 18.225 23.025 17.55 17.85 17.55"></polygon>
                    <polygon id="Path" points="16.425 19.5 21.6 19.5 22.125 18.825 16.875 18.825"></polygon>
                    <polygon id="Path" points="15.525 20.775 20.7 20.775 21.225 20.1 15.975 20.1"></polygon>
                    <polygon id="Path" points="14.55 22.05 19.8 22.05 20.25 21.375 15.075 21.375"></polygon>
                    <polygon id="Path" points="13.65 23.325 18.9 23.325 19.35 22.65 14.1 22.65"></polygon>
                    <polygon id="Path" points="12.75 24.675 17.925 24.675 18.45 24 13.2 24"></polygon>
                    <polygon id="Path" points="11.775 25.95 17.025 25.95 17.475 25.275 12.3 25.275"></polygon>
                    <polygon id="Path" points="10.875 27.225 16.05 27.225 16.575 26.55 11.325 26.55"></polygon>
                    <polygon id="Path" points="9.975 28.5 15.15 28.5 15.675 27.825 10.425 27.825"></polygon>
                    <polygon id="Path" points="9 29.775 14.25 29.775 14.7 29.1 9.525 29.1"></polygon>
                    <polygon id="Path" points="8.1 31.125 13.35 31.125 13.8 30.45 8.55 30.45"></polygon>
                    <polygon id="Path" points="7.2 32.4 12.375 32.4 12.9 31.725 7.65 31.725"></polygon>
                    <polygon id="Path" points="6.225 33.675 11.475 33.675 11.925 33 6.75 33"></polygon>
                    <polygon id="Path" points="5.325 34.95 10.575 34.95 11.025 34.275 5.775 34.275"></polygon>
                    <polygon id="Path" points="4.425 36.225 9.6 36.225 10.125 35.55 4.875 35.55"></polygon>
                    <polygon id="Path" points="3.45 37.575 8.7 37.575 9.15 36.9 3.975 36.9"></polygon>
                    <polygon id="Path" points="2.55 38.85 7.8 38.85 8.25 38.175 3 38.175"></polygon>
                    <polygon id="Path" points="1.65 40.125 6.825 40.125 7.35 39.45 2.1 39.45"></polygon>
                    <polygon id="Path" points="0.675 41.4 5.925 41.4 6.375 40.725 1.2 40.725"></polygon>
                </g>
            </g>
        </g>
    </g>
</svg>